<svg version="1.1" id="Layer_1" xmlns="http://www.w3.org/2000/svg" xmlns:xlink="http://www.w3.org/1999/xlink" x="0px" y="0px"
	 viewBox="0 0 60 60" style="enable-background:new 0 0 60 60;" xml:space="preserve">
<style type="text/css">
	.st0{fill:#FFFFFF;}
</style>
<g>
	<path class="st0" d="M33.2,36.6c2.1-0.9,3.8-2.1,5-3.7c1.2-1.5,1.8-3.2,1.8-5s-0.6-3.5-1.8-5c-1.2-1.5-2.9-2.8-5-3.7
		c-2.1-0.9-4.4-1.3-6.9-1.3c-2.5,0-4.8,0.4-6.9,1.3c-2.1,0.9-3.8,2.1-5,3.7s-1.8,3.2-1.8,5c0,1.6,0.5,3,1.4,4.4
		c0.9,1.4,2.2,2.5,3.8,3.5c-0.1,0.3-0.3,0.6-0.4,0.9c-0.1,0.3-0.3,0.5-0.5,0.8c-0.2,0.2-0.3,0.4-0.4,0.6s-0.3,0.3-0.5,0.6
		c-0.2,0.2-0.4,0.4-0.5,0.5c0,0,0,0-0.1,0.1c0,0-0.1,0.1-0.1,0.1s0,0.1-0.1,0.1c0,0-0.1,0.1-0.1,0.1c0,0,0,0.1,0,0.1
		c0,0,0,0.1,0,0.1c0,0,0,0.1,0,0.1c0,0,0,0.1,0,0.1c0,0.2,0.1,0.3,0.2,0.4s0.3,0.2,0.4,0.2h0.1c0.7-0.1,1.2-0.2,1.7-0.3
		c2-0.5,3.8-1.4,5.4-2.5c1.2,0.2,2.3,0.3,3.4,0.3C28.7,37.9,31,37.5,33.2,36.6z M22.2,34.9l-0.9,0.6c-0.4,0.2-0.8,0.5-1.2,0.8
		l0.7-1.6l-1.9-1.1C17.7,32.8,16.7,32,16,31c-0.7-1-1-2-1-3.1c0-1.3,0.5-2.6,1.5-3.7c1-1.2,2.4-2.1,4.1-2.8c1.7-0.7,3.6-1,5.6-1
		c2,0,3.9,0.3,5.6,1c1.7,0.7,3.1,1.6,4.1,2.8c1,1.2,1.5,2.4,1.5,3.7S37,30.5,36,31.6s-2.4,2.1-4.1,2.8c-1.7,0.7-3.6,1-5.6,1
		c-1,0-2-0.1-3-0.3L22.2,34.9z"/>
	<path class="st0" d="M46.2,37.3c0.9-1.4,1.4-2.8,1.4-4.4c0-1.6-0.5-3.1-1.5-4.5c-1-1.4-2.3-2.6-4-3.5c0.3,1,0.5,2,0.5,3
		c0,1.8-0.4,3.4-1.3,5c-0.9,1.6-2.1,3-3.8,4.2c-1.5,1.1-3.2,1.9-5.2,2.5s-4,0.9-6.1,0.9c-0.4,0-1,0-1.7-0.1c2.6,1.7,5.7,2.6,9.2,2.6
		c1.1,0,2.3-0.1,3.4-0.3c1.6,1.1,3.4,2,5.4,2.5c0.5,0.1,1,0.2,1.7,0.3c0.2,0,0.3,0,0.4-0.1s0.2-0.2,0.3-0.4c0,0,0-0.1,0-0.1
		s0-0.1,0-0.1c0,0,0-0.1,0-0.1c0,0,0-0.1,0-0.1c0,0,0-0.1-0.1-0.1c0,0-0.1-0.1-0.1-0.1c0,0,0-0.1-0.1-0.1c0,0-0.1-0.1-0.1-0.1
		c-0.1-0.1-0.2-0.2-0.5-0.5c-0.2-0.2-0.4-0.4-0.5-0.6s-0.3-0.3-0.4-0.6c-0.2-0.2-0.4-0.5-0.5-0.8c-0.1-0.3-0.3-0.5-0.4-0.9
		C44,39.8,45.2,38.7,46.2,37.3z"/>
</g>
</svg>
