<svg version="1.1" id="Layer_1" xmlns="http://www.w3.org/2000/svg" xmlns:xlink="http://www.w3.org/1999/xlink" x="0px" y="0px"
	 viewBox="0 0 60 60" style="enable-background:new 0 0 60 60;" xml:space="preserve">
<style type="text/css">
	.st0{fill:#FFFFFF;}
</style>
<path class="st0" d="M44.9,21.2c-1.5-1.9-3.6-3.4-6.3-4.5c-2.6-1.1-5.5-1.6-8.6-1.6c-3.1,0-6,0.5-8.6,1.6c-2.6,1.1-4.7,2.6-6.3,4.5
	c-1.5,1.9-2.3,3.9-2.3,6.2c0,1.9,0.6,3.7,1.7,5.4c1.2,1.7,2.7,3.1,4.8,4.2c-0.1,0.5-0.3,1-0.5,1.5c-0.2,0.5-0.4,0.8-0.5,1.1
	c-0.2,0.3-0.4,0.6-0.6,1c-0.3,0.4-0.5,0.6-0.6,0.8s-0.4,0.4-0.7,0.7c-0.3,0.3-0.5,0.6-0.6,0.7c0,0-0.1,0.1-0.2,0.2
	c-0.1,0.1-0.1,0.1-0.1,0.2c0,0-0.1,0.1-0.1,0.2c-0.1,0.1-0.1,0.2-0.1,0.2c0,0,0,0.1,0,0.2c0,0.1,0,0.2,0,0.2v0
	c0.1,0.2,0.2,0.4,0.3,0.5c0.2,0.1,0.3,0.2,0.5,0.2h0.1c0.8-0.1,1.6-0.2,2.2-0.4c3.4-0.9,6.3-2.4,8.8-4.6c1,0.1,1.9,0.2,2.8,0.2
	c3.1,0,6-0.5,8.6-1.6c2.6-1.1,4.7-2.6,6.3-4.5s2.3-3.9,2.3-6.2C47.2,25.2,46.4,23.1,44.9,21.2z M42.7,32.3c-1.3,1.5-3.1,2.7-5.4,3.6
	s-4.7,1.3-7.3,1.3c-0.8,0-1.6-0.1-2.5-0.2L26.4,37l-0.8,0.7c-1.6,1.4-3.3,2.5-5.3,3.3c0.6-1,1-2.1,1.3-3.3l0.5-1.8l-1.7-1
	c-1.7-0.9-3-2.1-3.9-3.4c-0.9-1.3-1.4-2.7-1.4-4.1c0-1.8,0.7-3.4,2-4.9s3.1-2.7,5.4-3.6s4.7-1.3,7.3-1.3s5.1,0.4,7.3,1.3
	s4.1,2.1,5.4,3.6c1.3,1.5,2,3.1,2,4.9C44.7,29.1,44.1,30.8,42.7,32.3z"/>
</svg>
