<svg version="1.1" id="Layer_1" xmlns="http://www.w3.org/2000/svg" xmlns:xlink="http://www.w3.org/1999/xlink" x="0px" y="0px"
	 viewBox="0 0 60 60" style="enable-background:new 0 0 60 60;" xml:space="preserve">
<style type="text/css">
	.st0{fill:#FFFFFF;}
</style>
<g>
	<path class="st0" d="M48.8,13.8c-0.6-0.6-1.4-1-2.3-1h-33c-0.9,0-1.7,0.3-2.3,1c-0.6,0.6-1,1.4-1,2.3v22.4c0,0.9,0.3,1.7,1,2.3
		c0.6,0.6,1.4,1,2.3,1h11.2c0,0.5-0.1,1.1-0.3,1.6c-0.2,0.5-0.4,1-0.7,1.4c-0.2,0.4-0.3,0.7-0.3,0.9c0,0.4,0.1,0.7,0.4,0.9
		c0.3,0.3,0.6,0.4,0.9,0.4h10.6c0.4,0,0.7-0.1,0.9-0.4c0.3-0.3,0.4-0.6,0.4-0.9c0-0.2-0.1-0.5-0.3-0.9c-0.2-0.4-0.4-0.9-0.7-1.5
		c-0.2-0.6-0.3-1.1-0.3-1.6h11.2c0.9,0,1.7-0.3,2.3-1c0.6-0.6,1-1.4,1-2.3V16.1C49.8,15.2,49.5,14.5,48.8,13.8z M47.1,33.3
		c0,0.2-0.1,0.3-0.2,0.5c-0.1,0.1-0.3,0.2-0.5,0.2h-33c-0.2,0-0.3-0.1-0.5-0.2c-0.1-0.1-0.2-0.3-0.2-0.5V16.1c0-0.2,0.1-0.3,0.2-0.5
		c0.1-0.1,0.3-0.2,0.5-0.2h33c0.2,0,0.3,0.1,0.5,0.2c0.1,0.1,0.2,0.3,0.2,0.5V33.3z"/>
	<path class="st0" d="M28.4,19.5c-0.1-0.1-0.1-0.1-0.2-0.1c0,0-0.1,0-0.1,0c-0.1,0.1-0.2,0.2-0.2,0.3v8.2c0,0.2,0.1,0.3,0.2,0.3
		c0,0,0.1,0,0.1,0c0.1,0,0.2,0,0.2-0.1l1.7-1.7l1,2.5c0,0.1,0.1,0.1,0.2,0.2c0.1,0,0.2,0,0.3,0l1-0.4c0.1,0,0.1-0.1,0.2-0.2
		c0-0.1,0-0.2,0-0.3l-1.1-2.6h2.1c0.2,0,0.3-0.1,0.3-0.2c0.1-0.1,0-0.3-0.1-0.4L28.4,19.5z"/>
</g>
</svg>
