<?xml version="1.0" encoding="utf-8"?>
<!-- Generator: Adobe Illustrator 19.2.1, SVG Export Plug-In . SVG Version: 6.00 Build 0)  -->
<svg version="1.1" id="Layer_1" xmlns="http://www.w3.org/2000/svg" xmlns:xlink="http://www.w3.org/1999/xlink" x="0px" y="0px"
	 viewBox="0 0 60 60" style="enable-background:new 0 0 60 60;" xml:space="preserve">
<style type="text/css">
	.st0{fill:#FFFFFF;}
</style>
<path class="st0" d="M52.4,31.1L52.4,31.1c-0.6-1.9-1.4-3.4-2.7-4.6c-0.4-0.4-0.7-0.7-1.1-1c-0.4-0.3-0.8-0.6-1.4-0.9
	c-0.5-0.3-0.9-0.5-1.2-0.6c-0.3-0.1-0.7-0.3-1.4-0.6c-0.6-0.3-1-0.5-1.2-0.5c-1.6-0.8-3.2-1.3-4.8-1.7c-2.5-0.6-5.5-0.9-8.8-0.9
	c-3.3,0-6.3,0.3-8.8,0.9c-1.5,0.4-3.2,0.9-4.8,1.7c-0.1,0.1-0.5,0.2-1.2,0.5c-0.7,0.3-1.1,0.5-1.4,0.6c-0.3,0.1-0.6,0.3-1.2,0.6
	c-0.5,0.3-1,0.6-1.4,0.9c-0.4,0.3-0.7,0.6-1.1,1c-1.2,1.2-2.1,2.8-2.7,4.6c-0.6,2.1-0.7,3.6-0.3,4.7c0.2,0.5,0.5,1.1,0.9,1.8
	c0.4,0.7,0.8,1.2,1.2,1.6c0.3,0.3,0.5,0.4,0.7,0.5c0.5,0.2,1.2,0.3,3-0.3c0.4-0.1,0.9-0.2,1.5-0.4c0.6-0.2,1.2-0.4,1.7-0.5
	c0.5-0.1,1-0.3,1.4-0.4c0.1,0,0.4-0.1,0.8-0.1c0.5-0.1,0.9-0.2,1.2-0.3c0.4-0.1,0.7-0.3,1-0.6c0.4-0.4,0.7-1.1,0.7-2.1
	c0-0.7,0-1.5-0.1-2.3c-0.1-0.6-0.1-1.3-0.1-1.9c0-0.4,0-0.6,0-0.6c0,0,0.1-0.1,0.2-0.1c0.2-0.1,0.3-0.1,0.4-0.2
	c0.1,0,0.3-0.1,0.6-0.2c0.4-0.1,0.6-0.1,0.6-0.1c2.4-0.7,4.8-1,7-1c2.2,0,4.6,0.4,7,1c0,0,0.2,0.1,0.6,0.2c0.3,0.1,0.5,0.1,0.6,0.2
	c0.1,0,0.2,0.1,0.4,0.2c0.1,0,0.1,0.1,0.2,0.1c0,0.1,0.1,0.3,0.1,0.6c0,0.6-0.1,1.3-0.1,1.9c-0.1,0.7-0.2,1.5-0.1,2.3
	c0,1,0.2,1.6,0.7,2.1c0.3,0.3,0.6,0.5,1,0.6c0.3,0.1,0.7,0.2,1.2,0.3c0.4,0.1,0.7,0.1,0.7,0.1c0.5,0.1,1,0.2,1.5,0.4
	c0.5,0.1,1.1,0.3,1.7,0.5c0.7,0.2,1.2,0.3,1.5,0.4c1.1,0.4,1.8,0.5,2.3,0.5c0.3,0,0.5,0,0.7-0.1c0.2-0.1,0.5-0.3,0.8-0.5
	c0.4-0.4,0.8-0.9,1.2-1.6c0.4-0.7,0.7-1.3,0.9-1.7C53.1,34.7,53,33.2,52.4,31.1z M45.7,24.9c0,0,0.1,0,0.1,0.1
	C45.8,24.9,45.7,24.9,45.7,24.9c-0.1,0-0.2-0.1-0.4-0.2C45.5,24.8,45.6,24.8,45.7,24.9z M43.1,23.7c0.1,0.1,0.4,0.2,0.7,0.3
	C43.5,23.9,43.2,23.8,43.1,23.7C43.1,23.7,43.1,23.7,43.1,23.7z M15.7,24.3c0.2-0.1,0.4-0.2,0.5-0.2C16,24.1,15.9,24.2,15.7,24.3
	c-0.1,0-0.1,0.1-0.2,0.1C15.5,24.3,15.6,24.3,15.7,24.3z M8.2,35.2c-0.2-0.8-0.1-1.9,0.2-3.4C8.1,33.3,8,34.4,8.2,35.2z M10.6,38.7
	c0,0-0.1-0.1-0.4-0.3c-0.3-0.3-0.7-0.8-1.1-1.4c-0.4-0.6-0.6-1.1-0.8-1.5c0.2,0.4,0.4,0.9,0.8,1.5c0.4,0.6,0.8,1.1,1.1,1.4
	C10.4,38.6,10.5,38.7,10.6,38.7C10.6,38.7,10.6,38.7,10.6,38.7z M12.9,38.4c-0.3,0.1-0.5,0.2-0.7,0.2C12.4,38.5,12.6,38.4,12.9,38.4
	c0.2-0.1,0.5-0.1,0.8-0.2C13.4,38.2,13.1,38.3,12.9,38.4z M17.6,37C17.6,37,17.6,37,17.6,37C17.7,37,17.7,37,17.6,37
	C17.7,37,17.7,37,17.6,37z M20.1,36.2c0.2-0.2,0.3-0.7,0.3-1.4C20.5,35.5,20.3,36,20.1,36.2z M20.2,30.7c0-0.6,0.1-1.1,0.3-1.3
	C20.3,29.7,20.2,30.1,20.2,30.7z M21,29.1c-0.2,0.1-0.4,0.2-0.5,0.3C20.6,29.3,20.8,29.2,21,29.1c0.2-0.1,0.3-0.1,0.4-0.2
	C21.3,29,21.1,29,21,29.1z M21.7,28.8c0.1,0,0.3-0.1,0.5-0.1C22,28.7,21.8,28.8,21.7,28.8z M30,27.5C30,27.5,30,27.5,30,27.5
	c0.8,0,1.7,0,2.6,0.1C31.7,27.5,30.8,27.5,30,27.5z M37.8,28.7c0.2,0.1,0.4,0.1,0.5,0.1C38.2,28.8,38,28.7,37.8,28.7z M39,29.1
	C38.9,29,38.8,29,38.7,29C38.8,29,38.9,29,39,29.1c0.2,0.1,0.3,0.1,0.4,0.2C39.3,29.2,39.2,29.2,39,29.1z M39.5,34.8
	C39.5,34.8,39.5,34.8,39.5,34.8c0,0.2,0,0.4,0.1,0.6C39.5,35.3,39.5,35.1,39.5,34.8z M39.5,34.8c0-0.6,0-1.1,0.1-1.7
	C39.5,33.7,39.5,34.3,39.5,34.8z M39.6,29.5c0.2,0.2,0.3,0.6,0.3,1.3C39.8,30.1,39.7,29.7,39.6,29.5z M40.5,36.6
	C40.5,36.6,40.5,36.6,40.5,36.6C40.5,36.6,40.5,36.6,40.5,36.6c0.2,0.1,0.5,0.1,0.8,0.2C41,36.8,40.7,36.7,40.5,36.6z M41.8,36.9
	c0.1,0,0.2,0,0.3,0.1C42,37,41.9,36.9,41.8,36.9z M42.1,37c0.1,0,0.1,0,0.1,0c0.1,0,0.1,0,0.2,0.1C42.4,37,42.3,37,42.1,37
	C42.2,37,42.2,37,42.1,37z M47,38.3C47,38.3,47,38.3,47,38.3C47,38.3,47.1,38.3,47,38.3C47.1,38.3,47,38.3,47,38.3z M49.3,38.8
	C49.3,38.8,49.3,38.8,49.3,38.8C49.3,38.8,49.3,38.8,49.3,38.8C49.3,38.8,49.3,38.8,49.3,38.8z M50.8,35c-0.1,0.4-0.4,0.8-0.8,1.4
	c-0.4,0.6-0.7,1-0.9,1.3c0,0-0.1,0.1-0.1,0.1c-0.2,0-0.6-0.1-1.7-0.4c-0.3-0.1-0.8-0.2-1.5-0.4c-0.6-0.2-1.2-0.4-1.8-0.5
	c-0.5-0.2-1-0.3-1.6-0.4c-0.1,0-0.3-0.1-0.7-0.1c-0.4-0.1-0.7-0.1-0.9-0.2c-0.1,0-0.2-0.1-0.2-0.1c0,0-0.1-0.2-0.1-0.7
	c0-0.6,0-1.3,0.1-1.9c0.1-0.7,0.2-1.5,0.2-2.2c0-1-0.2-1.6-0.6-2c-0.2-0.2-0.4-0.4-0.8-0.5c-0.3-0.1-0.5-0.2-0.6-0.3
	c-0.1,0-0.4-0.1-0.8-0.2c-0.3-0.1-0.4-0.1-0.5-0.1c-2.6-0.7-5.1-1.1-7.6-1.1c-2.4,0-4.9,0.4-7.6,1.1c0,0-0.2,0.1-0.5,0.1
	c-0.4,0.1-0.6,0.2-0.8,0.2c-0.2,0-0.4,0.1-0.6,0.3c-0.3,0.2-0.6,0.3-0.8,0.5c-0.4,0.4-0.6,1.1-0.6,2c0,0.7,0.1,1.4,0.2,2.2
	c0.1,0.6,0.1,1.3,0.1,1.9c0,0.5-0.1,0.7-0.1,0.7c0,0,0,0,0,0c-0.1,0.1-0.1,0.1-0.3,0.1c-0.2,0.1-0.5,0.1-0.9,0.2
	C17.9,36,17.6,36,17.4,36c-0.5,0.1-1,0.3-1.5,0.4c-0.5,0.1-1.1,0.3-1.8,0.5c-0.6,0.2-1.1,0.3-1.5,0.4c-1,0.3-1.5,0.4-1.6,0.4
	c0,0,0,0-0.1-0.1c-0.3-0.3-0.6-0.7-0.9-1.3c-0.4-0.6-0.6-1.1-0.8-1.4c-0.1-0.4-0.3-1.3,0.3-3.4c0.5-1.5,1.2-2.8,2.1-3.8
	c0.3-0.3,0.6-0.6,0.9-0.8c0.3-0.2,0.7-0.5,1.1-0.7c0.5-0.3,0.8-0.4,1-0.6c0.2-0.1,0.7-0.3,1.3-0.6c0.7-0.3,1.1-0.5,1.2-0.6
	c1.5-0.7,3-1.2,4.4-1.6c2.4-0.6,5.2-0.8,8.3-0.8c3.1,0,5.9,0.3,8.3,0.8c1.4,0.3,2.9,0.9,4.4,1.6c0.1,0.1,0.6,0.3,1.2,0.6
	c0.6,0.3,1.1,0.5,1.3,0.6c0.2,0.1,0.6,0.3,1,0.6c0.4,0.2,0.8,0.5,1.1,0.7c0.3,0.2,0.6,0.5,0.9,0.8c1,1,1.7,2.2,2.1,3.8
	C51.1,33.8,50.9,34.7,50.8,35L50.8,35z M51,36.8c0.3-0.5,0.6-1,0.7-1.3c0,0,0,0,0,0C51.6,35.8,51.3,36.2,51,36.8z M51.8,35.1
	c0.2-0.8,0.1-1.8-0.2-3.3C51.9,33.3,52,34.4,51.8,35.1z"/>
</svg>
