<svg version="1.1" id="Layer_1" xmlns="http://www.w3.org/2000/svg" xmlns:xlink="http://www.w3.org/1999/xlink" x="0px" y="0px"
	 viewBox="0 0 60 60" style="enable-background:new 0 0 60 60;" xml:space="preserve">
<style type="text/css">
	.st0{fill:#FFFFFF;}
</style>
<path class="st0" d="M49.1,27.6l0-0.8l-0.8-0.1c-3.3-0.5-5.8,0.1-7.5,1.6c-1.7,1.5-2.4,3.9-2.3,7l-6.6,5.4V24.1c3.3-2.8,5-5.8,5-8.9
	c0-3.2-1.8-6.3-5.4-9.2l-0.6-0.5L30.2,6c-3.6,2.9-5.4,6-5.4,9.2c0,3.1,1.7,6.1,5,8.9v12.4l-4-4.2c0.3-3-0.2-5.3-1.7-6.9
	c-1.5-1.7-4-2.5-7.3-2.3l-0.8,0L16,23.9c-0.5,3.3,0.1,5.8,1.6,7.5c1.4,1.6,3.6,2.3,6.5,2.3c0.1,0,0.3,0,0.4,0l5.3,5.7v3.7l-7.3-0.9
	c-1.6-2.3-3.4-3.5-5.4-3.7c-2-0.2-4,0.8-6,2.8L10.6,42l0.5,0.7c1.6,2.3,3.5,3.6,5.5,3.8c0.1,0,0.3,0,0.4,0c1.7,0,3.3-0.8,5-2.3
	l7.9,1v8.1c0,0.6,0.4,1,1,1s1-0.4,1-1v-10l8.2-6.7c0.5,0,1,0.1,1.4,0.1c2.2,0,4-0.6,5.3-1.8C48.5,33.3,49.3,30.9,49.1,27.6z
	 M17.9,25.1c2.2,0,3.9,0.6,4.9,1.7c1,1.1,1.4,2.8,1.2,5c-2.2,0-3.9-0.6-4.9-1.7C18.1,28.9,17.7,27.3,17.9,25.1z M16.7,44.4
	c-1.2-0.1-2.4-0.9-3.5-2.3c1.3-1.2,2.6-1.8,3.8-1.7c1.2,0.1,2.4,0.9,3.5,2.3C19.2,44,17.9,44.5,16.7,44.4z M26.9,15.2
	c0-2.4,1.4-4.8,4-7.1c2.7,2.4,4,4.8,4,7.1s-1.4,4.8-4,7.1C28.2,20,26.9,17.6,26.9,15.2z M45.4,33.4c-1.1,1-2.8,1.4-5,1.2
	c0-2.2,0.6-3.9,1.7-4.9c1.1-1,2.8-1.4,5-1.2C47.1,30.8,46.5,32.4,45.4,33.4z"/>
</svg>
